<svg width="93" height="31" viewBox="0 0 93 31" fill="none" xmlns="http://www.w3.org/2000/svg">
<g filter="url(#filter0_d_2_236)">
<mask id="path-1-outside-1_2_236" maskUnits="userSpaceOnUse" x="3" y="-1" width="88" height="25" fill="black">
<rect fill="white" x="3" y="-1" width="88" height="25"/>
<path d="M14.55 18.3C13.1833 18.3 11.9083 18.075 10.725 17.625C9.55833 17.175 8.54167 16.5417 7.675 15.725C6.825 14.9083 6.15833 13.95 5.675 12.85C5.20833 11.75 4.975 10.55 4.975 9.25C4.975 7.95 5.20833 6.75 5.675 5.65C6.15833 4.55 6.83333 3.59167 7.7 2.775C8.56667 1.95833 9.58333 1.325 10.75 0.874998C11.9167 0.424999 13.1833 0.2 14.55 0.2C15.9333 0.2 17.2 0.424999 18.35 0.874998C19.5167 1.325 20.525 1.95833 21.375 2.775C22.2417 3.575 22.9167 4.525 23.4 5.625C23.8833 6.725 24.125 7.93333 24.125 9.25C24.125 10.55 23.8833 11.7583 23.4 12.875C22.9167 13.975 22.2417 14.9333 21.375 15.75C20.525 16.55 19.5167 17.175 18.35 17.625C17.2 18.075 15.9333 18.3 14.55 18.3ZM20.275 22.025C19.5917 22.025 18.9417 21.95 18.325 21.8C17.725 21.65 17.125 21.4083 16.525 21.075C15.9417 20.7417 15.325 20.2917 14.675 19.725C14.0417 19.1583 13.35 18.4583 12.6 17.625L16.85 16.55C17.3 17.1667 17.7167 17.6583 18.1 18.025C18.4833 18.3917 18.85 18.65 19.2 18.8C19.5667 18.95 19.95 19.025 20.35 19.025C21.4167 19.025 22.3667 18.5917 23.2 17.725L25 19.875C23.8167 21.3083 22.2417 22.025 20.275 22.025ZM14.55 14.85C15.3333 14.85 16.05 14.7167 16.7 14.45C17.3667 14.1833 17.95 13.8 18.45 13.3C18.95 12.8 19.3333 12.2083 19.6 11.525C19.8833 10.825 20.025 10.0667 20.025 9.25C20.025 8.41667 19.8833 7.65833 19.6 6.975C19.3333 6.29167 18.95 5.7 18.45 5.2C17.95 4.7 17.3667 4.31667 16.7 4.05C16.05 3.78333 15.3333 3.65 14.55 3.65C13.7667 3.65 13.0417 3.78333 12.375 4.05C11.7083 4.31667 11.125 4.7 10.625 5.2C10.1417 5.7 9.75833 6.29167 9.475 6.975C9.20833 7.65833 9.075 8.41667 9.075 9.25C9.075 10.0667 9.20833 10.825 9.475 11.525C9.75833 12.2083 10.1417 12.8 10.625 13.3C11.125 13.8 11.7083 14.1833 12.375 14.45C13.0417 14.7167 13.7667 14.85 14.55 14.85ZM27.1688 18V0.499999H34.7438C36.3104 0.499999 37.6604 0.758332 38.7938 1.275C39.9271 1.775 40.8021 2.5 41.4188 3.45C42.0354 4.4 42.3438 5.53333 42.3438 6.85C42.3438 8.15 42.0354 9.275 41.4188 10.225C40.8021 11.175 39.9271 11.9083 38.7938 12.425C37.6604 12.925 36.3104 13.175 34.7438 13.175H29.4188L31.2188 11.35V18H27.1688ZM31.2188 11.8L29.4188 9.875H34.5188C35.7688 9.875 36.7021 9.60833 37.3188 9.075C37.9354 8.54167 38.2438 7.8 38.2438 6.85C38.2438 5.88333 37.9354 5.13333 37.3188 4.6C36.7021 4.06667 35.7688 3.8 34.5188 3.8H29.4188L31.2188 1.875V11.8ZM45.2352 18V0.499999H49.2852V18H45.2352ZM61.8133 18.3C60.4633 18.3 59.2049 18.0833 58.0383 17.65C56.8883 17.2 55.8883 16.5667 55.0383 15.75C54.1883 14.9333 53.5216 13.975 53.0383 12.875C52.5716 11.775 52.3383 10.5667 52.3383 9.25C52.3383 7.93333 52.5716 6.725 53.0383 5.625C53.5216 4.525 54.1883 3.56667 55.0383 2.75C55.9049 1.93333 56.9133 1.30833 58.0633 0.874998C59.2133 0.424999 60.4716 0.2 61.8383 0.2C63.3549 0.2 64.7216 0.466666 65.9383 1C67.1716 1.51667 68.2049 2.28333 69.0383 3.3L66.4383 5.7C65.8383 5.01667 65.1716 4.50833 64.4383 4.175C63.7049 3.825 62.9049 3.65 62.0383 3.65C61.2216 3.65 60.4716 3.78333 59.7883 4.05C59.1049 4.31667 58.5133 4.7 58.0133 5.2C57.5133 5.7 57.1216 6.29167 56.8383 6.975C56.5716 7.65833 56.4383 8.41667 56.4383 9.25C56.4383 10.0833 56.5716 10.8417 56.8383 11.525C57.1216 12.2083 57.5133 12.8 58.0133 13.3C58.5133 13.8 59.1049 14.1833 59.7883 14.45C60.4716 14.7167 61.2216 14.85 62.0383 14.85C62.9049 14.85 63.7049 14.6833 64.4383 14.35C65.1716 14 65.8383 13.475 66.4383 12.775L69.0383 15.175C68.2049 16.1917 67.1716 16.9667 65.9383 17.5C64.7216 18.0333 63.3466 18.3 61.8133 18.3ZM75.3982 14L75.1732 9.325L83.5482 0.499999H88.0482L80.4982 8.625L78.2482 11.025L75.3982 14ZM71.7732 18V0.499999H75.7982V18H71.7732ZM83.7482 18L77.5232 10.375L80.1732 7.5L88.4732 18H83.7482Z"/>
</mask>
<path d="M14.55 18.3C13.1833 18.3 11.9083 18.075 10.725 17.625C9.55833 17.175 8.54167 16.5417 7.675 15.725C6.825 14.9083 6.15833 13.95 5.675 12.85C5.20833 11.75 4.975 10.55 4.975 9.25C4.975 7.95 5.20833 6.75 5.675 5.65C6.15833 4.55 6.83333 3.59167 7.7 2.775C8.56667 1.95833 9.58333 1.325 10.75 0.874998C11.9167 0.424999 13.1833 0.2 14.55 0.2C15.9333 0.2 17.2 0.424999 18.35 0.874998C19.5167 1.325 20.525 1.95833 21.375 2.775C22.2417 3.575 22.9167 4.525 23.4 5.625C23.8833 6.725 24.125 7.93333 24.125 9.25C24.125 10.55 23.8833 11.7583 23.4 12.875C22.9167 13.975 22.2417 14.9333 21.375 15.75C20.525 16.55 19.5167 17.175 18.35 17.625C17.2 18.075 15.9333 18.3 14.55 18.3ZM20.275 22.025C19.5917 22.025 18.9417 21.95 18.325 21.8C17.725 21.65 17.125 21.4083 16.525 21.075C15.9417 20.7417 15.325 20.2917 14.675 19.725C14.0417 19.1583 13.35 18.4583 12.6 17.625L16.85 16.55C17.3 17.1667 17.7167 17.6583 18.1 18.025C18.4833 18.3917 18.85 18.65 19.2 18.8C19.5667 18.95 19.95 19.025 20.35 19.025C21.4167 19.025 22.3667 18.5917 23.2 17.725L25 19.875C23.8167 21.3083 22.2417 22.025 20.275 22.025ZM14.55 14.85C15.3333 14.85 16.05 14.7167 16.7 14.45C17.3667 14.1833 17.95 13.8 18.45 13.3C18.95 12.8 19.3333 12.2083 19.6 11.525C19.8833 10.825 20.025 10.0667 20.025 9.25C20.025 8.41667 19.8833 7.65833 19.6 6.975C19.3333 6.29167 18.95 5.7 18.45 5.2C17.95 4.7 17.3667 4.31667 16.7 4.05C16.05 3.78333 15.3333 3.65 14.55 3.65C13.7667 3.65 13.0417 3.78333 12.375 4.05C11.7083 4.31667 11.125 4.7 10.625 5.2C10.1417 5.7 9.75833 6.29167 9.475 6.975C9.20833 7.65833 9.075 8.41667 9.075 9.25C9.075 10.0667 9.20833 10.825 9.475 11.525C9.75833 12.2083 10.1417 12.8 10.625 13.3C11.125 13.8 11.7083 14.1833 12.375 14.45C13.0417 14.7167 13.7667 14.85 14.55 14.85ZM27.1688 18V0.499999H34.7438C36.3104 0.499999 37.6604 0.758332 38.7938 1.275C39.9271 1.775 40.8021 2.5 41.4188 3.45C42.0354 4.4 42.3438 5.53333 42.3438 6.85C42.3438 8.15 42.0354 9.275 41.4188 10.225C40.8021 11.175 39.9271 11.9083 38.7938 12.425C37.6604 12.925 36.3104 13.175 34.7438 13.175H29.4188L31.2188 11.35V18H27.1688ZM31.2188 11.8L29.4188 9.875H34.5188C35.7688 9.875 36.7021 9.60833 37.3188 9.075C37.9354 8.54167 38.2438 7.8 38.2438 6.85C38.2438 5.88333 37.9354 5.13333 37.3188 4.6C36.7021 4.06667 35.7688 3.8 34.5188 3.8H29.4188L31.2188 1.875V11.8ZM45.2352 18V0.499999H49.2852V18H45.2352ZM61.8133 18.3C60.4633 18.3 59.2049 18.0833 58.0383 17.65C56.8883 17.2 55.8883 16.5667 55.0383 15.75C54.1883 14.9333 53.5216 13.975 53.0383 12.875C52.5716 11.775 52.3383 10.5667 52.3383 9.25C52.3383 7.93333 52.5716 6.725 53.0383 5.625C53.5216 4.525 54.1883 3.56667 55.0383 2.75C55.9049 1.93333 56.9133 1.30833 58.0633 0.874998C59.2133 0.424999 60.4716 0.2 61.8383 0.2C63.3549 0.2 64.7216 0.466666 65.9383 1C67.1716 1.51667 68.2049 2.28333 69.0383 3.3L66.4383 5.7C65.8383 5.01667 65.1716 4.50833 64.4383 4.175C63.7049 3.825 62.9049 3.65 62.0383 3.65C61.2216 3.65 60.4716 3.78333 59.7883 4.05C59.1049 4.31667 58.5133 4.7 58.0133 5.2C57.5133 5.7 57.1216 6.29167 56.8383 6.975C56.5716 7.65833 56.4383 8.41667 56.4383 9.25C56.4383 10.0833 56.5716 10.8417 56.8383 11.525C57.1216 12.2083 57.5133 12.8 58.0133 13.3C58.5133 13.8 59.1049 14.1833 59.7883 14.45C60.4716 14.7167 61.2216 14.85 62.0383 14.85C62.9049 14.85 63.7049 14.6833 64.4383 14.35C65.1716 14 65.8383 13.475 66.4383 12.775L69.0383 15.175C68.2049 16.1917 67.1716 16.9667 65.9383 17.5C64.7216 18.0333 63.3466 18.3 61.8133 18.3ZM75.3982 14L75.1732 9.325L83.5482 0.499999H88.0482L80.4982 8.625L78.2482 11.025L75.3982 14ZM71.7732 18V0.499999H75.7982V18H71.7732ZM83.7482 18L77.5232 10.375L80.1732 7.5L88.4732 18H83.7482Z" fill="#101010"/>
<path d="M10.725 17.625L10.3651 18.558L10.3696 18.5597L10.725 17.625ZM7.675 15.725L6.98214 16.4461L6.9892 16.4528L7.675 15.725ZM5.675 12.85L4.75434 13.2406L4.75948 13.2523L5.675 12.85ZM5.675 5.65L4.75941 5.24769L4.75442 5.25945L5.675 5.65ZM7.7 2.775L8.3858 3.50279L7.7 2.775ZM10.75 0.874998L10.3901 -0.0580034L10.3901 -0.0580032L10.75 0.874998ZM18.35 0.874998L17.9856 1.80625L17.9901 1.808L18.35 0.874998ZM21.375 2.775L20.6822 3.4961L20.6894 3.50303L20.6967 3.5098L21.375 2.775ZM23.4 5.625L22.4845 6.02727L22.4845 6.02727L23.4 5.625ZM23.4 12.875L24.3155 13.2773L24.3177 13.2722L23.4 12.875ZM21.375 15.75L22.0604 16.4782L22.0608 16.4778L21.375 15.75ZM18.35 17.625L17.9901 16.692L17.9856 16.6938L18.35 17.625ZM18.325 21.8L18.0825 22.7702L18.0886 22.7717L18.325 21.8ZM16.525 21.075L16.0288 21.9433L16.0394 21.9492L16.525 21.075ZM14.675 19.725L14.0081 20.4703L14.0179 20.4788L14.675 19.725ZM12.6 17.625L12.3548 16.6555L10.7479 17.062L11.8567 18.294L12.6 17.625ZM16.85 16.55L17.6578 15.9605L17.2596 15.4149L16.6048 15.5805L16.85 16.55ZM18.1 18.025L18.7912 17.3024L18.1 18.025ZM19.2 18.8L18.8061 19.7191L18.8137 19.7224L18.8214 19.7255L19.2 18.8ZM23.2 17.725L23.9668 17.0831L23.2515 16.2287L22.4792 17.0319L23.2 17.725ZM25 19.875L25.7712 20.5116L26.3005 19.8705L25.7668 19.2331L25 19.875ZM16.7 14.45L16.3286 13.5215L16.3204 13.5248L16.7 14.45ZM18.45 13.3L17.7429 12.5929L17.7429 12.5929L18.45 13.3ZM19.6 11.525L18.673 11.1498L18.6684 11.1615L19.6 11.525ZM19.6 6.975L18.6684 7.33854L18.6722 7.34832L18.6763 7.35801L19.6 6.975ZM18.45 5.2L17.7429 5.90711L17.7429 5.90711L18.45 5.2ZM16.7 4.05L16.3204 4.9752L16.3286 4.97848L16.7 4.05ZM12.375 4.05L12.0036 3.12152L12.0036 3.12152L12.375 4.05ZM10.625 5.2L9.91789 4.49289L9.9119 4.49888L9.90601 4.50498L10.625 5.2ZM9.475 6.975L8.55126 6.59198L8.54724 6.60168L8.54342 6.61146L9.475 6.975ZM9.475 11.525L8.54051 11.881L8.54569 11.8946L8.55126 11.908L9.475 11.525ZM10.625 13.3L9.90601 13.995L9.9119 14.0011L9.91789 14.0071L10.625 13.3ZM12.375 14.45L12.0036 15.3785L12.0036 15.3785L12.375 14.45ZM14.55 17.3C13.2951 17.3 12.1415 17.0938 11.0804 16.6903L10.3696 18.5597C11.6751 19.0562 13.0716 19.3 14.55 19.3V17.3ZM11.0849 16.692C10.033 16.2863 9.12847 15.7206 8.3608 14.9972L6.9892 16.4528C7.95487 17.3627 9.0837 18.0637 10.3651 18.558L11.0849 16.692ZM8.36783 15.0039C7.61406 14.2797 7.02224 13.4303 6.59052 12.4477L4.75948 13.2523C5.29442 14.4697 6.03594 15.537 6.98217 16.4461L8.36783 15.0039ZM6.59558 12.4594C6.18578 11.4935 5.975 10.4277 5.975 9.25H3.975C3.975 10.6723 4.23089 12.0065 4.75442 13.2405L6.59558 12.4594ZM5.975 9.25C5.975 8.07229 6.18578 7.00651 6.59558 6.04055L4.75442 5.25945C4.23089 6.49349 3.975 7.82771 3.975 9.25H5.975ZM6.59052 6.05227C7.02039 5.07396 7.61766 4.22661 8.3858 3.50279L7.0142 2.04721C6.049 2.95672 5.29628 4.02604 4.75948 5.24773L6.59052 6.05227ZM8.3858 3.50279C9.15347 2.77941 10.058 2.21373 11.1099 1.808L10.3901 -0.0580032C9.1087 0.436263 7.97987 1.13725 7.0142 2.04721L8.3858 3.50279ZM11.1099 1.808C12.1515 1.40623 13.2949 1.2 14.55 1.2V-0.8C13.0717 -0.8 11.6818 -0.556233 10.3901 -0.0580034L11.1099 1.808ZM14.55 1.2C15.8236 1.2 16.9649 1.40682 17.9856 1.80624L18.7144 -0.0562446C17.4351 -0.556819 16.0431 -0.8 14.55 -0.8V1.2ZM17.9901 1.808C19.0405 2.21314 19.9337 2.777 20.6822 3.4961L22.0678 2.05389C21.1163 1.13966 19.9928 0.436859 18.7099 -0.0580033L17.9901 1.808ZM20.6967 3.5098C21.4603 4.21469 22.0554 5.05084 22.4845 6.02727L24.3155 5.22273C23.7779 3.99916 23.023 2.93531 22.0533 2.0402L20.6967 3.5098ZM22.4845 6.02727C22.907 6.98877 23.125 8.05844 23.125 9.25H25.125C25.125 7.80822 24.8597 6.46122 24.3155 5.22273L22.4845 6.02727ZM23.125 9.25C23.125 10.4228 22.9077 11.4949 22.4823 12.4778L24.3177 13.2722C24.859 12.0217 25.125 10.6772 25.125 9.25H23.125ZM22.4845 12.4727C22.0546 13.451 21.4573 14.2984 20.6892 15.0222L22.0608 16.4778C23.026 15.5683 23.7787 14.499 24.3155 13.2773L22.4845 12.4727ZM20.6896 15.0218C19.9404 15.7269 19.0448 16.2852 17.9901 16.692L18.7099 18.558C19.9886 18.0648 21.1096 17.3731 22.0604 16.4782L20.6896 15.0218ZM17.9856 16.6938C16.9648 17.0932 15.8236 17.3 14.55 17.3V19.3C16.0431 19.3 17.4352 19.0568 18.7144 18.5562L17.9856 16.6938ZM20.275 21.025C19.6652 21.025 19.095 20.9581 18.5614 20.8283L18.0886 22.7717C18.7884 22.9419 19.5181 23.025 20.275 23.025V21.025ZM18.5675 20.8299C18.0611 20.7033 17.5424 20.4963 17.0106 20.2008L16.0394 21.9492C16.7076 22.3204 17.3889 22.5967 18.0825 22.7701L18.5675 20.8299ZM17.0211 20.2068C16.5086 19.9139 15.9456 19.506 15.3321 18.9712L14.0179 20.4788C14.7044 21.0773 15.3748 21.5695 16.0289 21.9432L17.0211 20.2068ZM15.3418 18.9798C14.7422 18.4433 14.0763 17.7705 13.3433 16.956L11.8567 18.294C12.6237 19.1462 13.3411 19.8734 14.0082 20.4702L15.3418 18.9798ZM12.8452 18.5945L17.0952 17.5195L16.6048 15.5805L12.3548 16.6555L12.8452 18.5945ZM16.0422 17.1395C16.5133 17.785 16.9687 18.3267 17.4088 18.7476L18.7912 17.3024C18.4647 16.99 18.0867 16.5483 17.6578 15.9605L16.0422 17.1395ZM17.4088 18.7476C17.8471 19.167 18.312 19.5074 18.8061 19.7191L19.5939 17.8809C19.388 17.7926 19.1195 17.6164 18.7912 17.3024L17.4088 18.7476ZM18.8214 19.7255C19.3094 19.9252 19.8214 20.025 20.35 20.025V18.025C20.0786 18.025 19.8239 17.9748 19.5786 17.8745L18.8214 19.7255ZM20.35 20.025C21.7245 20.025 22.9253 19.4535 23.9208 18.4181L22.4792 17.0319C21.8081 17.7299 21.1089 18.025 20.35 18.025V20.025ZM22.4332 18.3669L24.2332 20.5169L25.7668 19.2331L23.9668 17.0831L22.4332 18.3669ZM24.2288 19.2384C23.2478 20.4267 21.9632 21.025 20.275 21.025V23.025C22.5202 23.025 24.3856 22.19 25.7712 20.5116L24.2288 19.2384ZM14.55 15.85C15.4486 15.85 16.296 15.6966 17.0796 15.3752L16.3204 13.5248C15.804 13.7367 15.2181 13.85 14.55 13.85V15.85ZM17.0714 15.3785C17.8618 15.0623 18.5598 14.6044 19.1571 14.0071L17.7429 12.5929C17.3402 12.9956 16.8715 13.3044 16.3286 13.5215L17.0714 15.3785ZM19.1571 14.0071C19.7585 13.4057 20.2166 12.6958 20.5316 11.8885L18.6684 11.1615C18.4501 11.7209 18.1415 12.1943 17.7429 12.5929L19.1571 14.0071ZM20.5269 11.9002C20.8623 11.0716 21.025 10.1847 21.025 9.25H19.025C19.025 9.94862 18.9043 10.5784 18.6731 11.1498L20.5269 11.9002ZM21.025 9.25C21.025 8.3018 20.8634 7.41117 20.5237 6.59198L18.6763 7.35801C18.9033 7.9055 19.025 8.53153 19.025 9.25H21.025ZM20.5316 6.61146C20.2166 5.80424 19.7585 5.09433 19.1571 4.49289L17.7429 5.90711C18.1415 6.30567 18.4501 6.77909 18.6684 7.33854L20.5316 6.61146ZM19.1571 4.49289C18.5598 3.89562 17.8618 3.43769 17.0714 3.12152L16.3286 4.97848C16.8715 5.19564 17.3402 5.50437 17.7429 5.90711L19.1571 4.49289ZM17.0796 3.12483C16.296 2.80338 15.4486 2.65 14.55 2.65V4.65C15.2181 4.65 15.804 4.76329 16.3204 4.97517L17.0796 3.12483ZM14.55 2.65C13.6511 2.65 12.7987 2.80348 12.0036 3.12152L12.7464 4.97848C13.2846 4.76319 13.8823 4.65 14.55 4.65V2.65ZM12.0036 3.12152C11.2132 3.43769 10.5152 3.89562 9.91789 4.49289L11.3321 5.90711C11.7348 5.50437 12.2035 5.19564 12.7464 4.97848L12.0036 3.12152ZM9.90601 4.50498C9.33001 5.10085 8.87956 5.80019 8.55126 6.59198L10.3987 7.35801C10.6371 6.78314 10.9533 6.29915 11.344 5.89502L9.90601 4.50498ZM8.54342 6.61146C8.22581 7.42533 8.075 8.30907 8.075 9.25H10.075C10.075 8.52426 10.1909 7.89133 10.4066 7.33854L8.54342 6.61146ZM8.075 9.25C8.075 10.1773 8.22678 11.0575 8.54051 11.881L10.4095 11.169C10.1899 10.5925 10.075 9.95601 10.075 9.25H8.075ZM8.55126 11.908C8.87956 12.6998 9.33001 13.3992 9.90601 13.995L11.344 12.605C10.9533 12.2008 10.6371 11.7169 10.3987 11.142L8.55126 11.908ZM9.91789 14.0071C10.5152 14.6044 11.2132 15.0623 12.0036 15.3785L12.7464 13.5215C12.2035 13.3044 11.7348 12.9956 11.3321 12.5929L9.91789 14.0071ZM12.0036 15.3785C12.7987 15.6965 13.6511 15.85 14.55 15.85V13.85C13.8823 13.85 13.2846 13.7368 12.7464 13.5215L12.0036 15.3785ZM27.1688 18H26.1688V19H27.1688V18ZM27.1688 0.499999V-0.500001H26.1688V0.499999H27.1688ZM38.7938 1.275L38.3789 2.18498L38.3901 2.18992L38.7938 1.275ZM41.4188 3.45L40.58 3.99447L40.58 3.99447L41.4188 3.45ZM41.4188 10.225L40.58 9.68053L41.4188 10.225ZM38.7938 12.425L39.1974 13.34L39.2086 13.3349L38.7938 12.425ZM29.4188 13.175L28.7068 12.4728L27.0279 14.175H29.4188V13.175ZM31.2188 11.35H32.2188V8.91204L30.5068 10.6478L31.2188 11.35ZM31.2188 18V19H32.2188V18H31.2188ZM31.2188 11.8L30.4883 12.483L32.2188 14.3336V11.8H31.2188ZM29.4188 9.875V8.875H27.1146L28.6883 10.558L29.4188 9.875ZM29.4188 3.8L28.6883 3.11701L27.1146 4.8H29.4188V3.8ZM31.2188 1.875H32.2188V-0.658588L30.4883 1.19201L31.2188 1.875ZM28.1688 18V0.499999H26.1688V18H28.1688ZM27.1688 1.5H34.7438V-0.500001H27.1688V1.5ZM34.7438 1.5C36.2031 1.5 37.4049 1.74084 38.3789 2.18491L39.2086 0.365092C37.916 -0.224176 36.4178 -0.500001 34.7438 -0.500001V1.5ZM38.3901 2.18992C39.3628 2.61905 40.0791 3.22287 40.58 3.99447L42.2575 2.90553C41.5251 1.77712 40.4914 0.930946 39.1974 0.360081L38.3901 2.18992ZM40.58 3.99447C41.0752 4.7574 41.3438 5.69449 41.3438 6.85H43.3438C43.3438 5.37218 42.9956 4.0426 42.2575 2.90553L40.58 3.99447ZM41.3438 6.85C41.3438 7.98605 41.0765 8.91557 40.58 9.68053L42.2575 10.7695C42.9943 9.63443 43.3438 8.31395 43.3438 6.85H41.3438ZM40.58 9.68053C40.0772 10.4551 39.357 11.0692 38.3789 11.5151L39.2086 13.3349C40.4972 12.7474 41.527 11.8949 42.2575 10.7695L40.58 9.68053ZM38.3901 11.5101C37.4129 11.9412 36.2069 12.175 34.7438 12.175V14.175C36.4139 14.175 37.908 13.9088 39.1974 13.3399L38.3901 11.5101ZM34.7438 12.175H29.4188V14.175H34.7438V12.175ZM30.1307 13.8772L31.9307 12.0522L30.5068 10.6478L28.7068 12.4728L30.1307 13.8772ZM30.2188 11.35V18H32.2188V11.35H30.2188ZM31.2188 17H27.1688V19H31.2188V17ZM31.9492 11.117L30.1492 9.19201L28.6883 10.558L30.4883 12.483L31.9492 11.117ZM29.4188 10.875H34.5188V8.875H29.4188V10.875ZM34.5188 10.875C35.8861 10.875 37.0993 10.5869 37.9729 9.83136L36.6646 8.31864C36.3049 8.62972 35.6514 8.875 34.5188 8.875V10.875ZM37.9729 9.83136C38.8464 9.07591 39.2438 8.03731 39.2438 6.85H37.2438C37.2438 7.56269 37.0244 8.00742 36.6646 8.31864L37.9729 9.83136ZM39.2438 6.85C39.2438 5.65227 38.8504 4.60256 37.9729 3.84364L36.6646 5.35636C37.0204 5.66411 37.2438 6.11439 37.2438 6.85H39.2438ZM37.9729 3.84364C37.0993 3.08806 35.8861 2.8 34.5188 2.8V4.8C35.6514 4.8 36.3049 5.04528 36.6646 5.35636L37.9729 3.84364ZM34.5188 2.8H29.4188V4.8H34.5188V2.8ZM30.1492 4.48299L31.9492 2.55799L30.4883 1.19201L28.6883 3.11701L30.1492 4.48299ZM30.2188 1.875V11.8H32.2188V1.875H30.2188ZM45.2352 18H44.2352V19H45.2352V18ZM45.2352 0.499999V-0.500001H44.2352V0.499999H45.2352ZM49.2852 0.499999H50.2852V-0.500001H49.2852V0.499999ZM49.2852 18V19H50.2852V18H49.2852ZM46.2352 18V0.499999H44.2352V18H46.2352ZM45.2352 1.5H49.2852V-0.500001H45.2352V1.5ZM48.2852 0.499999V18H50.2852V0.499999H48.2852ZM49.2852 17H45.2352V19H49.2852V17ZM58.0383 17.65L57.6739 18.5812L57.682 18.5844L57.6901 18.5874L58.0383 17.65ZM55.0383 15.75L54.3455 16.4711L54.3455 16.4711L55.0383 15.75ZM53.0383 12.875L52.1176 13.2656L52.1228 13.2773L53.0383 12.875ZM53.0383 5.625L52.1227 5.22269L52.1177 5.23445L53.0383 5.625ZM55.0383 2.75L54.3524 2.02218L54.3455 2.02889L55.0383 2.75ZM58.0633 0.874998L58.4159 1.81084L58.4277 1.80624L58.0633 0.874998ZM65.9383 1L65.5368 1.91587L65.5443 1.91917L65.5519 1.92234L65.9383 1ZM69.0383 3.3L69.7166 4.0348L70.4094 3.39528L69.8117 2.66607L69.0383 3.3ZM66.4383 5.7L65.6868 6.3598L66.3633 7.13016L67.1166 6.4348L66.4383 5.7ZM64.4383 4.175L64.0076 5.07748L64.016 5.0815L64.0245 5.08537L64.4383 4.175ZM58.0133 5.2L58.7204 5.90711L58.7204 5.90711L58.0133 5.2ZM56.8383 6.975L55.9145 6.59198L55.9105 6.60168L55.9067 6.61146L56.8383 6.975ZM56.8383 11.525L55.9067 11.8885L55.9105 11.8983L55.9145 11.908L56.8383 11.525ZM58.0133 13.3L57.3062 14.0071L57.3062 14.0071L58.0133 13.3ZM64.4383 14.35L64.8521 15.2604L64.8606 15.2565L64.869 15.2525L64.4383 14.35ZM66.4383 12.775L67.1166 12.0402L66.3542 11.3365L65.679 12.1242L66.4383 12.775ZM69.0383 15.175L69.8117 15.8089L70.4094 15.0797L69.7166 14.4402L69.0383 15.175ZM65.9383 17.5L65.5414 16.5821L65.5368 16.5841L65.9383 17.5ZM61.8133 17.3C60.572 17.3 59.4326 17.1011 58.3865 16.7126L57.6901 18.5874C58.9773 19.0655 60.3545 19.3 61.8133 19.3V17.3ZM58.4027 16.7188C57.369 16.3143 56.482 15.7503 55.7311 15.0289L54.3455 16.4711C55.2946 17.383 56.4076 18.0857 57.6739 18.5812L58.4027 16.7188ZM55.7311 15.0289C54.9773 14.3047 54.3855 13.4553 53.9538 12.4727L52.1228 13.2773C52.6577 14.4947 53.3992 15.562 54.3455 16.4711L55.7311 15.0289ZM53.9589 12.4844C53.5497 11.52 53.3383 10.4462 53.3383 9.25H51.3383C51.3383 10.6871 51.5935 12.03 52.1177 13.2655L53.9589 12.4844ZM53.3383 9.25C53.3383 8.05379 53.5497 6.97996 53.9589 6.01555L52.1177 5.23445C51.5935 6.47003 51.3383 7.81288 51.3383 9.25H53.3383ZM53.9538 6.02727C54.3855 5.04473 54.9773 4.19531 55.7311 3.4711L54.3455 2.02889C53.3992 2.93802 52.6577 4.00527 52.1228 5.22273L53.9538 6.02727ZM55.7241 3.47779C56.4914 2.75471 57.3856 2.19901 58.4159 1.81077L57.7107 -0.0607721C56.441 0.417657 55.3185 1.11195 54.3525 2.02221L55.7241 3.47779ZM58.4277 1.80624C59.4498 1.40628 60.583 1.2 61.8383 1.2V-0.8C60.3602 -0.8 58.9768 -0.556286 57.6989 -0.0562446L58.4277 1.80624ZM61.8383 1.2C63.2363 1.2 64.4634 1.44535 65.5368 1.91587L66.3398 0.0841308C64.9798 -0.512019 63.4736 -0.8 61.8383 -0.8V1.2ZM65.5519 1.92234C66.6373 2.37704 67.5369 3.0458 68.2649 3.93393L69.8117 2.66607C68.873 1.52087 67.7059 0.656293 66.3247 0.0776619L65.5519 1.92234ZM68.36 2.5652L65.76 4.9652L67.1166 6.4348L69.7166 4.0348L68.36 2.5652ZM67.1897 5.0402C66.5083 4.2641 65.7301 3.66374 64.8521 3.26463L64.0245 5.08537C64.6131 5.35292 65.1683 5.76923 65.6868 6.3598L67.1897 5.0402ZM64.869 3.27252C63.9923 2.85409 63.0439 2.65 62.0383 2.65V4.65C62.766 4.65 63.4176 4.79591 64.0076 5.07748L64.869 3.27252ZM62.0383 2.65C61.1113 2.65 60.2364 2.80169 59.4247 3.11842L60.1518 4.98158C60.7069 4.76497 61.3319 4.65 62.0383 4.65V2.65ZM59.4247 3.11842C58.6175 3.43343 57.9076 3.89145 57.3062 4.49289L58.7204 5.90711C59.1189 5.50855 59.5924 5.1999 60.1518 4.98158L59.4247 3.11842ZM57.3062 4.49289C56.7091 5.08993 56.2458 5.79315 55.9145 6.59198L57.762 7.35801C57.9975 6.79018 58.3174 6.31007 58.7204 5.90711L57.3062 4.49289ZM55.9067 6.61146C55.5891 7.42533 55.4383 8.30907 55.4383 9.25H57.4383C57.4383 8.52426 57.5541 7.89133 57.7699 7.33854L55.9067 6.61146ZM55.4383 9.25C55.4383 10.1909 55.5891 11.0747 55.9067 11.8885L57.7699 11.1615C57.5541 10.6087 57.4383 9.97573 57.4383 9.25H55.4383ZM55.9145 11.908C56.2458 12.7069 56.7091 13.4101 57.3062 14.0071L58.7204 12.5929C58.3174 12.1899 57.9975 11.7098 57.762 11.142L55.9145 11.908ZM57.3062 14.0071C57.9076 14.6085 58.6175 15.0666 59.4247 15.3816L60.1518 13.5184C59.5924 13.3001 59.1189 12.9915 58.7204 12.5929L57.3062 14.0071ZM59.4247 15.3816C60.2364 15.6983 61.1113 15.85 62.0383 15.85V13.85C61.3319 13.85 60.7069 13.735 60.1518 13.5184L59.4247 15.3816ZM62.0383 15.85C63.0367 15.85 63.9791 15.6572 64.8521 15.2604L64.0245 13.4396C63.4308 13.7095 62.7732 13.85 62.0383 13.85V15.85ZM64.869 15.2525C65.7441 14.8348 66.519 14.2174 67.1975 13.4258L65.679 12.1242C65.1576 12.7326 64.5991 13.1652 64.0076 13.4475L64.869 15.2525ZM65.76 13.5098L68.36 15.9098L69.7166 14.4402L67.1166 12.0402L65.76 13.5098ZM68.2649 14.5411C67.5349 15.4316 66.6317 16.1106 65.5414 16.5821L66.3352 18.4179C67.7115 17.8227 68.875 16.9517 69.8117 15.8089L68.2649 14.5411ZM65.5368 16.5841C64.4648 17.0541 63.2296 17.3 61.8133 17.3V19.3C63.4636 19.3 64.9785 19.0126 66.3398 18.4159L65.5368 16.5841ZM75.3982 14L74.3994 14.0481L74.5112 16.3715L76.1204 14.6918L75.3982 14ZM75.1732 9.325L74.4479 8.63663L74.1539 8.94644L74.1744 9.37307L75.1732 9.325ZM83.5482 0.499999V-0.500001H83.1186L82.8229 -0.188372L83.5482 0.499999ZM88.0482 0.499999L88.7808 1.18071L90.3426 -0.500001H88.0482V0.499999ZM80.4982 8.625L81.2278 9.30895L81.2308 9.30571L80.4982 8.625ZM78.2482 11.025L78.9704 11.7168L78.9778 11.7089L78.2482 11.025ZM71.7732 18H70.7732V19H71.7732V18ZM71.7732 0.499999V-0.500001H70.7732V0.499999H71.7732ZM75.7982 0.499999H76.7982V-0.500001H75.7982V0.499999ZM75.7982 18V19H76.7982V18H75.7982ZM83.7482 18L82.9736 18.6324L83.2737 19H83.7482V18ZM77.5232 10.375L76.7879 9.69725L76.1999 10.3353L76.7486 11.0074L77.5232 10.375ZM80.1732 7.5L80.9577 6.87987L80.2316 5.96123L79.4379 6.82225L80.1732 7.5ZM88.4732 18V19H90.5384L89.2577 17.3799L88.4732 18ZM76.3971 13.9519L76.1721 9.27693L74.1744 9.37307L74.3994 14.0481L76.3971 13.9519ZM75.8986 10.0134L84.2736 1.18837L82.8229 -0.188372L74.4479 8.63663L75.8986 10.0134ZM83.5482 1.5H88.0482V-0.500001H83.5482V1.5ZM87.3157 -0.180712L79.7657 7.94429L81.2308 9.30571L88.7808 1.18071L87.3157 -0.180712ZM79.7687 7.94106L77.5187 10.3411L78.9778 11.7089L81.2278 9.30894L79.7687 7.94106ZM77.5261 10.3332L74.6761 13.3082L76.1204 14.6918L78.9704 11.7168L77.5261 10.3332ZM72.7732 18V0.499999H70.7732V18H72.7732ZM71.7732 1.5H75.7982V-0.500001H71.7732V1.5ZM74.7982 0.499999V18H76.7982V0.499999H74.7982ZM75.7982 17H71.7732V19H75.7982V17ZM84.5229 17.3676L78.2979 9.74259L76.7486 11.0074L82.9736 18.6324L84.5229 17.3676ZM78.2585 11.0527L80.9085 8.17775L79.4379 6.82225L76.7879 9.69725L78.2585 11.0527ZM79.3887 8.12013L87.6887 18.6201L89.2577 17.3799L80.9577 6.87987L79.3887 8.12013ZM88.4732 17H83.7482V19H88.4732V17Z" fill="black" mask="url(#path-1-outside-1_2_236)"/>
</g>
<defs>
<filter id="filter0_d_2_236" x="0.974976" y="0.200012" width="91.4983" height="29.825" filterUnits="userSpaceOnUse" color-interpolation-filters="sRGB">
<feFlood flood-opacity="0" result="BackgroundImageFix"/>
<feColorMatrix in="SourceAlpha" type="matrix" values="0 0 0 0 0 0 0 0 0 0 0 0 0 0 0 0 0 0 127 0" result="hardAlpha"/>
<feOffset dy="4"/>
<feGaussianBlur stdDeviation="2"/>
<feComposite in2="hardAlpha" operator="out"/>
<feColorMatrix type="matrix" values="0 0 0 0 0 0 0 0 0 0 0 0 0 0 0 0 0 0 0.25 0"/>
<feBlend mode="normal" in2="BackgroundImageFix" result="effect1_dropShadow_2_236"/>
<feBlend mode="normal" in="SourceGraphic" in2="effect1_dropShadow_2_236" result="shape"/>
</filter>
</defs>
</svg>
