<?xml version="1.0" standalone="no"?>
<svg version="1.0" xmlns="http://www.w3.org/2000/svg"
 width="20" height="20" viewBox="0 0 512.000000 512.000000"
 preserveAspectRatio="xMidYMid meet">

<g transform="translate(0.000000,512.000000) scale(0.100000,-0.100000)"
fill="#ffa542" stroke="none">
<path d="M1215 4664 c-631 -106 -1113 -600 -1205 -1235 -8 -55 -11 -143 -7
-245 4 -133 10 -178 35 -276 54 -209 140 -395 286 -618 350 -534 1060 -1159
1911 -1682 325 -200 317 -197 449 -122 766 439 1476 1005 1906 1519 257 308
440 650 505 945 23 102 31 370 15 480 -37 259 -135 488 -296 695 -223 288
-551 481 -919 540 -115 19 -344 19 -459 0 -307 -50 -586 -193 -798 -407 l-77
-78 -93 92 c-211 209 -478 345 -775 393 -110 18 -369 18 -478 -1z m2675 -270
c269 -53 523 -203 689 -409 181 -223 272 -473 272 -748 0 -145 -13 -225 -61
-370 -71 -211 -191 -420 -376 -652 -121 -152 -477 -505 -669 -664 -328 -272
-761 -577 -1103 -775 l-82 -48 -98 58 c-53 31 -200 126 -327 210 -862 570
-1474 1166 -1725 1679 -98 199 -141 373 -141 561 0 571 416 1062 982 1160 143
25 371 15 504 -20 268 -72 480 -218 655 -449 60 -79 86 -98 143 -104 58 -6 91
18 165 114 280 367 730 543 1172 457z"/>
</g>
</svg>
